<svg width="24" height="22" viewBox="0 0 24 22" fill="none" xmlns="http://www.w3.org/2000/svg">
<path d="M22.7158 0.32959L22.7402 0.338379C23.2132 0.507287 23.5654 0.928007 23.7969 1.43896C24.0289 1.95135 24.1499 2.57426 24.1504 3.18604V3.48096C24.1306 4.16802 23.9729 4.84514 23.6865 5.47217L23.6855 5.47412C23.5297 5.80137 23.2522 6.0556 22.9121 6.18115L22.9111 6.18018C22.9049 6.18245 22.9004 6.18453 22.8984 6.18506C22.8934 6.18641 22.8891 6.18754 22.8867 6.18799C22.8822 6.18883 22.8783 6.18868 22.876 6.18896C22.8713 6.18953 22.8657 6.19065 22.8623 6.19092C22.8551 6.19146 22.846 6.19139 22.8359 6.19189C22.8151 6.19294 22.7855 6.19449 22.748 6.1958C22.6729 6.19844 22.5635 6.20197 22.4248 6.20557C22.1474 6.21276 21.7501 6.22123 21.2646 6.22998C20.2929 6.24749 18.9668 6.26502 17.541 6.27002C16.1146 6.27502 14.5782 6.25514 13.1982 6.23389C11.8171 6.21262 10.5935 6.18994 9.79004 6.18994H9.7832L7.47266 6.07959H7.46191V6.07861C7.17254 6.04227 6.88501 5.98811 6.60254 5.91553V5.91455C6.4378 5.88466 6.27803 5.83055 6.12988 5.75244L6.11621 5.74463L6.10352 5.73486C5.95894 5.61229 5.84459 5.45848 5.76855 5.28662L5.70508 5.10986C5.54474 4.52359 5.46657 3.91781 5.4707 3.31006L5.46289 3.00342C5.47452 2.28919 5.69299 1.59089 6.0957 0.995605L6.1084 0.978027L6.125 0.964355C6.18461 0.915418 6.25442 0.880111 6.3291 0.86084C6.39495 0.843862 6.46302 0.841242 6.53027 0.850098L12.29 0.643066C15.3486 0.530611 18.878 0.399661 20.875 0.32959H22.7158ZM14.3076 1.78857C10.9534 1.80894 7.6386 1.80906 6.67578 1.80908C6.52006 2.14856 6.44534 2.52 6.45996 2.89404L6.46094 2.90771L6.31055 2.8999L6.45996 2.90771C6.43032 3.51913 6.50208 4.13117 6.67188 4.71924L6.71387 4.82666C6.71973 4.84015 6.72622 4.85336 6.73242 4.8667L7.52344 5.02002H9.79688L22.3799 4.771C22.4215 4.69633 22.4604 4.62015 22.4893 4.53955C22.667 3.96239 22.7285 3.35561 22.6709 2.75439L22.6699 2.74365V2.59424C22.6539 2.29136 22.5441 2.00071 22.3574 1.76025H17.7021L14.3076 1.78857Z" fill="white" stroke="white" stroke-width="0.3"/>
<path d="M22.3374 1.41254C22.4102 1.42589 22.4774 1.45992 22.5317 1.51019L22.3911 1.76508C22.3284 1.74805 22.2695 1.7181 22.2183 1.67816L22.3374 1.41254Z" fill="white" stroke="white" stroke-width="0.3"/>
<path d="M20.3467 8.23956L20.3711 8.24933C20.8376 8.41794 21.1851 8.82154 21.416 9.33038C21.6473 9.84002 21.7698 10.4705 21.7803 11.1253L21.7812 11.4232C21.7635 12.1162 21.6055 12.7995 21.3164 13.4319V13.4339C21.2411 13.5947 21.1342 13.739 21.0029 13.8587C20.8717 13.9783 20.7178 14.071 20.5508 14.1312L20.5439 14.1341L20.5371 14.1351C20.5277 14.1374 20.5193 14.1388 20.5176 14.139C20.5146 14.1394 20.5118 14.1398 20.5098 14.14C20.5058 14.1403 20.5012 14.1407 20.4971 14.1409C20.4884 14.1415 20.4765 14.1423 20.4629 14.1429C20.4356 14.1441 20.3968 14.1451 20.3477 14.1468C20.249 14.1502 20.1065 14.1546 19.9268 14.1595C19.5671 14.1693 19.056 14.1818 18.4414 14.1937C17.8267 14.2055 17.1079 14.2173 16.332 14.2259L13.8799 14.2396C12.6537 14.2346 11.382 14.212 10.2471 14.1907C9.11158 14.1695 8.11378 14.1497 7.43066 14.1497H7.42188L5.10156 14.0198L5.09082 14.0189C4.80203 13.9816 4.51565 13.9273 4.2334 13.8558V13.8548C4.06939 13.8234 3.91037 13.7698 3.76172 13.6937L3.74609 13.6859L3.7334 13.6741C3.53986 13.5096 3.40138 13.2898 3.33691 13.0443L3.27246 12.8216C3.13254 12.3 3.05768 11.7625 3.0498 11.222L3.05078 11.221C2.99703 10.4017 3.22853 9.5889 3.70801 8.92218L3.71582 8.91241L3.72363 8.9046C3.76628 8.86165 3.81719 8.82734 3.87305 8.80402C3.92894 8.78074 3.98926 8.76794 4.0498 8.76788C4.11038 8.76788 4.17062 8.78077 4.22656 8.80402C4.28187 8.82704 4.33259 8.86036 4.375 8.90265L4.43262 8.97101C4.44951 8.99573 4.46388 9.02238 4.47559 9.05011C4.49892 9.10544 4.51074 9.16486 4.51074 9.22491C4.51074 9.28496 4.49891 9.34439 4.47559 9.39972C4.45575 9.44669 4.42582 9.48808 4.3916 9.5257C4.13439 9.90251 4.01148 10.3555 4.04004 10.8109V10.8265C4.01528 11.4394 4.08723 12.0523 4.25293 12.6429L4.30859 12.7327C4.31885 12.747 4.33085 12.7658 4.34277 12.7845L5.09668 12.9095H7.39062L19.9629 12.6712C20.0071 12.5964 20.0459 12.5188 20.0752 12.4368C20.2454 11.863 20.3058 11.2623 20.251 10.6663L20.1992 10.2737C20.1784 10.1513 20.1526 10.0385 20.1182 9.93878C20.0534 9.75091 19.9651 9.63624 19.8438 9.58038L5.68164 9.67023H5.68066C5.58094 9.67027 5.48372 9.64094 5.40137 9.58722L5.32422 9.5257C5.22907 9.43311 5.17361 9.30685 5.16992 9.17413V9.17023L5.17969 9.07159C5.19891 8.97573 5.24632 8.88692 5.31641 8.81671L5.39258 8.75421C5.47276 8.70066 5.56731 8.67124 5.66504 8.67023L18.665 8.23956H20.3467Z" fill="white" stroke="white" stroke-width="0.3"/>
<path d="M17.0962 15.7296L17.1216 15.7394C17.5878 15.9081 17.9349 16.3142 18.1655 16.8146C18.3967 17.3162 18.5192 17.9291 18.5298 18.545L18.5308 18.8419C18.512 19.5319 18.3546 20.2122 18.0669 20.8419L18.0649 20.8458C17.9059 21.1692 17.6299 21.4208 17.2935 21.5499L17.2876 21.5529V21.5519C17.2757 21.5558 17.2656 21.5583 17.2632 21.5587C17.2593 21.5593 17.2555 21.5595 17.2534 21.5597C17.2493 21.5601 17.2451 21.5604 17.2417 21.5607C17.2344 21.5612 17.2248 21.5621 17.2144 21.5626C17.1931 21.5637 17.1632 21.5642 17.1255 21.5656C17.0499 21.5682 16.9408 21.5717 16.8022 21.5753C16.525 21.5825 16.1286 21.591 15.644 21.5997C14.6747 21.6172 13.3512 21.6348 11.9204 21.6398C10.489 21.6448 8.95247 21.6249 7.57373 21.6036C6.19415 21.5824 4.97381 21.5597 4.17041 21.5597H4.1626L1.85303 21.4503L1.84424 21.4493C1.55202 21.4188 1.26297 21.3633 0.97998 21.2843V21.2833C0.821187 21.2515 0.665723 21.2034 0.518066 21.1368L0.499512 21.1281L0.483887 21.1144C0.299511 20.9591 0.161853 20.7557 0.0874023 20.5265L0.0854492 20.5197C-0.0758499 19.9299 -0.155073 19.3205 -0.149902 18.7091C-0.220163 17.8785 0.00115542 17.0492 0.477051 16.3644L0.484863 16.3527L0.494629 16.3429C0.55244 16.286 0.623801 16.2445 0.70166 16.2218L0.821777 16.2023C0.859642 16.201 0.89766 16.2045 0.935059 16.212H0.936035C0.929297 16.2109 0.932999 16.2125 0.962402 16.213C0.986597 16.2134 1.02066 16.2134 1.06396 16.213C1.15055 16.2123 1.27226 16.2097 1.42529 16.2062C1.73118 16.1991 2.16045 16.1865 2.68213 16.17C3.7254 16.1371 5.13714 16.0887 6.6665 16.0343C9.72476 15.9256 13.2552 15.7946 15.2554 15.7296H17.0962ZM1.09229 17.2101C0.923496 17.5489 0.833473 17.9216 0.830566 18.3009V18.3058C0.807377 18.9186 0.874892 19.5316 1.03271 20.1241C1.05105 20.1765 1.07391 20.2271 1.09912 20.2765L1.89307 20.4298H4.16748L16.7505 20.1808C16.792 20.1063 16.8301 20.0298 16.8589 19.9493C17.0441 19.3851 17.1226 18.7914 17.0903 18.1984L17.0894 18.1857L17.2397 18.1896L17.0903 18.1857C17.1006 17.8333 16.9883 17.4897 16.7759 17.2101H1.09229Z" fill="white" stroke="white" stroke-width="0.3"/>
<path d="M16.7256 16.8545C16.7916 16.8705 16.8538 16.9011 16.9062 16.9443L16.7783 17.207C16.744 17.1996 16.7109 17.1875 16.6797 17.1719L16.5918 17.1133L16.7256 16.8545Z" fill="white" stroke="white" stroke-width="0.3"/>
</svg>
