<svg width="20" height="20" viewBox="0 0 20 20" fill="none" xmlns="http://www.w3.org/2000/svg">
<g clip-path="url(#clip0_82_219)">
<path d="M9.92627 0.816863C10.2011 0.803666 10.4734 0.876278 10.7056 1.02389H10.7065L10.8794 1.14401C10.9917 1.22743 11.0983 1.31818 11.1987 1.4155L11.3442 1.56589L11.3452 1.56686L12.5259 2.88425C12.5383 2.65658 12.6176 2.43668 12.7544 2.25241L12.7603 2.2446L12.7661 2.23776C12.8839 2.11413 13.0269 2.01708 13.1851 1.95261L13.189 1.95163L13.4409 1.8696C13.525 1.84643 13.61 1.82668 13.6958 1.811L13.9409 1.76901C14.1859 1.73222 14.4332 1.71186 14.6812 1.70846L14.9243 1.70944C15.1671 1.71425 15.4096 1.73061 15.6509 1.75925H15.6499C15.7519 1.76991 15.8532 1.78575 15.9536 1.80612L16.2524 1.88132L16.2593 1.88327L16.2661 1.8862L16.4253 1.96823C16.5269 2.03125 16.6177 2.11039 16.6938 2.20261L16.7964 2.34909L16.8003 2.3569L16.855 2.47214C16.9735 2.74329 17.0347 3.03663 17.0337 3.33346C17.0644 3.70201 17.0704 4.07258 17.0503 4.44186L17.0493 4.45065C16.9741 5.09421 16.8906 5.74921 16.8325 6.40475L16.8315 6.4194L16.8296 6.41843C16.7776 6.70068 16.7751 6.97783 16.7749 7.27389C17.0615 7.57243 17.3413 7.87534 17.6128 8.18405L17.9614 8.58932C18.7634 9.54382 19.4877 10.5613 20.1284 11.6313L20.2651 11.8579H20.1587C20.1587 11.8628 20.1598 11.8677 20.1597 11.8725L20.1479 11.9575C20.1415 11.9851 20.1322 12.0119 20.1206 12.0376L20.0776 12.1118C20.0611 12.1348 20.0425 12.156 20.022 12.1753L19.9546 12.227C19.9303 12.2421 19.9041 12.2551 19.8774 12.2651L19.7954 12.2866C19.7673 12.2912 19.7388 12.2934 19.7104 12.2924L19.6265 12.2817C19.5987 12.2752 19.5712 12.2661 19.5454 12.2544L19.4722 12.2114C19.4268 12.1788 19.3878 12.1375 19.3579 12.0903L19.0708 11.6616C18.3897 10.6696 17.6298 9.73335 16.7993 8.86178V8.86081C16.5259 8.57916 16.2519 8.30608 15.9702 8.03268L15.9604 8.02292V8.02194L15.9185 7.97214L15.022 7.08542C14.1191 6.20941 13.1984 5.35821 12.2866 4.4653L12.2583 4.43698C12.2405 4.41925 12.2142 4.39372 12.1812 4.36081C12.1146 4.29449 12.0197 4.1991 11.9058 4.08542C11.6779 3.85807 11.3739 3.55456 11.0708 3.25143C10.7678 2.94842 10.4646 2.64586 10.2388 2.41843C10.1342 2.3131 10.0463 2.22328 9.98193 2.15768C9.92548 2.22357 9.84986 2.31224 9.76025 2.4155C9.56006 2.64618 9.29169 2.95391 9.02295 3.2612C8.75419 3.5685 8.48478 3.87645 8.28271 4.1069C8.18184 4.22194 8.09749 4.31808 8.03857 4.38522C8.00919 4.41871 7.98598 4.44539 7.97021 4.46335C7.96243 4.47222 7.95668 4.47925 7.95264 4.48386L7.9458 4.49069V4.49167C7.38846 5.1179 6.82609 5.73007 6.24854 6.33542L5.66553 6.93796C4.88209 7.73806 4.11331 8.51607 3.27686 9.28561C2.98655 9.55901 2.68981 9.81082 2.39893 10.0581C2.10683 10.3064 1.82029 10.5497 1.54443 10.8091L1.54248 10.811C1.18622 11.134 0.863696 11.4924 0.57959 11.8803L0.578613 11.8794C0.534551 11.9428 0.474897 11.993 0.404785 12.0229L0.32959 12.0464C0.226728 12.0683 0.119284 12.0498 0.0297852 11.9946L0.0209961 11.9887C-0.0428799 11.943 -0.0918798 11.8801 -0.120605 11.8081L-0.14209 11.7329C-0.16166 11.6299 -0.141261 11.5231 -0.0844727 11.435L-0.0834961 11.4331H-0.0825195C0.143504 11.0935 0.396133 10.7724 0.67334 10.4731C0.977872 10.1391 1.30473 9.83336 1.63135 9.53171C1.95964 9.22851 2.2872 8.92922 2.6001 8.60397L2.60303 8.60104L3.17725 8.02292C3.74691 7.43226 4.30421 6.80882 4.854 6.18405L5.9458 4.93503C6.30702 4.51864 6.6652 4.10229 7.01904 3.686L7.021 3.68405L8.78174 1.68893C8.92666 1.47215 9.09273 1.27009 9.27686 1.08542L9.28076 1.08249L9.34912 1.02389C9.51392 0.895587 9.716 0.823598 9.92627 0.817839V0.816863ZM13.9116 2.8735L13.4888 2.95553C13.4872 2.96644 13.4858 2.98385 13.4849 3.01218C13.4837 3.04994 13.4829 3.09895 13.4829 3.16647V3.94089C14.2678 4.73713 14.9982 5.51059 15.8081 6.30026V4.36569L15.9585 4.37546L15.8091 4.36569C15.8296 4.04186 15.8295 3.71687 15.8091 3.39303L15.8081 3.3862C15.8055 3.26837 15.7778 3.15318 15.729 3.04636L15.5103 2.99655C15.2685 2.95044 15.0247 2.91567 14.7798 2.89303L14.5327 2.87448C14.3259 2.86256 14.1185 2.86199 13.9116 2.8735Z" fill="white" stroke="white" stroke-width="0.3"/>
<path d="M9.21411 5.53351C10.046 5.26143 10.7585 5.38838 11.2327 5.77765C11.7362 6.19109 11.9383 6.87558 11.7454 7.59698L11.7463 7.59796C11.7075 7.77901 11.6421 7.95316 11.551 8.11358L11.4514 8.26886C11.3442 8.41979 11.2146 8.55297 11.0676 8.66437L10.9153 8.76788C10.7046 8.89616 10.47 8.98029 10.2258 9.01495C9.98283 9.04938 9.73524 9.03386 9.49829 8.97003V8.97101L9.49634 8.97003H9.49438V8.96905C8.96796 8.83942 8.50869 8.51811 8.20825 8.06671V8.06573C8.06329 7.85078 7.97272 7.6045 7.9436 7.34796L7.93481 7.23663C7.92187 6.93981 7.9917 6.64479 8.13599 6.38507L8.13794 6.38116L8.22192 6.25323C8.42852 5.96328 8.71169 5.73484 9.04126 5.59503L9.04614 5.59308L9.21411 5.53351ZM9.65356 6.39874C9.4292 6.48533 9.24586 6.6534 9.14087 6.86944C9.11891 6.95085 9.1184 7.0368 9.13989 7.11847C9.15667 7.18223 9.18647 7.2417 9.22681 7.29327L9.27075 7.3421L9.28247 7.35284L9.29126 7.36651C9.38361 7.50421 9.50978 7.61468 9.65649 7.6878L9.80981 7.74835L9.81567 7.74933L9.76782 7.888L9.81567 7.7503C9.90391 7.78069 9.99802 7.7926 10.0911 7.78546C10.1839 7.77827 10.2743 7.75172 10.3567 7.70831L10.4729 7.63116C10.5088 7.60161 10.5413 7.56796 10.5706 7.53155C10.629 7.45885 10.6727 7.37539 10.6975 7.28546L10.7004 7.27179L10.842 7.32452L10.7014 7.27179C10.8455 6.89131 10.7482 6.6028 10.5588 6.44464C10.365 6.28273 10.0373 6.22569 9.66138 6.39483L9.65454 6.39874L9.59985 6.25812L9.65356 6.39874Z" fill="white" stroke="white" stroke-width="0.3"/>
<path d="M16.9082 9.68294C16.9651 9.68294 17.0217 9.69439 17.0742 9.71615L17.1494 9.75619C17.1729 9.77186 17.1948 9.78987 17.2148 9.8099L17.2686 9.8763C17.2842 9.89969 17.2978 9.92443 17.3086 9.95052L17.333 10.0326C17.3385 10.0602 17.3418 10.0882 17.3418 10.1165V11.7855C17.325 13.0938 17.2588 14.3917 17.292 15.6214C17.3536 16.2841 17.3533 16.951 17.291 17.6136L17.29 17.6234C17.2329 17.9853 17.0849 18.3269 16.8604 18.6165L16.8516 18.6283L16.8506 18.6273C16.6487 18.8432 16.3752 18.9782 16.0811 19.0072L16.0801 19.0081C15.6914 19.0436 15.2999 19.0436 14.9111 19.0081V19.0072L10.7529 18.8587H7.9873L7.07227 18.8929C6.77129 18.9084 6.4728 18.9277 6.17676 18.9564C5.60312 19.0477 5.02323 19.0962 4.44238 19.0999H4.43164C4.12227 19.0789 3.8199 18.9972 3.54199 18.8597L3.53125 18.8548L3.53223 18.8538C3.26346 18.6944 3.05954 18.4475 2.95312 18.1566L2.91309 18.0286L2.91113 18.0228V18.0218C2.80301 17.5126 2.75461 16.9924 2.7666 16.472C2.70882 15.6781 2.70801 14.8442 2.70801 14.0169V14.016L2.7207 13.1009C2.73792 12.1866 2.76857 11.2712 2.7998 10.3529H2.80078C2.80147 10.3011 2.81186 10.2502 2.83203 10.2025L2.87012 10.1322C2.88525 10.1101 2.90254 10.0894 2.92188 10.0706C2.96043 10.0333 3.00658 10.004 3.05664 9.9847L3.13379 9.96419C3.15987 9.95981 3.18632 9.95748 3.21289 9.95833C3.26532 9.96005 3.31744 9.97187 3.36523 9.99349L3.43359 10.0335C3.45472 10.0487 3.47433 10.0662 3.49219 10.0853L3.54004 10.1468C3.55392 10.1691 3.56494 10.1934 3.57422 10.2181C3.5919 10.2653 3.60054 10.3152 3.59961 10.3656L3.63184 12.1839C3.64535 12.791 3.65812 13.399 3.6582 14.0023L3.72168 15.1898L3.81641 16.4036L3.81738 16.4134H3.81641C3.82537 16.7936 3.8627 17.1727 3.92871 17.5472L3.95996 17.6644C3.97019 17.6994 3.98082 17.7305 3.99316 17.7581C4.01611 17.8094 4.03705 17.8289 4.05273 17.8372C4.25647 17.9193 4.47645 17.9527 4.69531 17.9339H4.7002L5.04199 17.9007C5.1571 17.8859 5.27309 17.8681 5.38867 17.849C5.61679 17.8111 5.84829 17.768 6.05664 17.7425H6.05762L6.47754 17.6947C6.8987 17.6498 7.32247 17.6165 7.74219 17.6165H10.7754C11.0194 17.6166 11.9373 17.6739 12.8564 17.7298C13.7839 17.7863 14.7143 17.8421 15 17.8421H15.0078L15.3447 17.8792C15.4725 17.8947 15.6099 17.9085 15.7422 17.9085C15.7923 17.9086 15.8401 17.9152 15.8799 17.9222C15.9269 17.9305 15.9505 17.9365 15.9844 17.9417C16.001 17.9443 16.0127 17.9434 16.0205 17.9437C16.1629 17.7443 16.249 17.5106 16.2666 17.266L16.2852 16.8763C16.2971 16.4873 16.2906 16.0979 16.2666 15.7093V15.6976L16.3018 14.7181C16.3503 13.7387 16.4322 12.7527 16.4756 11.7835H16.4746V10.1165C16.4746 10.0597 16.4861 10.0031 16.5078 9.95052L16.5479 9.8763C16.5636 9.85263 16.5813 9.83012 16.6016 9.8099L16.668 9.75619C16.6913 9.74059 16.7161 9.72697 16.7422 9.71615L16.8242 9.69173C16.8518 9.68627 16.8799 9.68296 16.9082 9.68294Z" fill="white" stroke="white" stroke-width="0.3"/>
<path d="M8.12476 17.392L8.27417 17.4057C8.25224 17.6443 8.04859 17.7466 7.87866 17.7523C7.71247 17.7578 7.5093 17.6774 7.42847 17.4828L7.42456 17.475L7.42261 17.4672C7.31978 17.114 7.25322 16.7512 7.22437 16.3852L7.20874 16.018C7.19997 15.1236 7.41126 14.2407 7.82495 13.4477L7.82886 13.4408L7.91675 13.3021C8.1317 12.9858 8.41646 12.7221 8.74976 12.5316C9.13044 12.3141 9.56131 12.1994 9.99976 12.1996H10.0007L10.158 12.2055C10.5226 12.2273 10.8807 12.3182 11.2117 12.475L11.3513 12.5463C11.6265 12.6957 11.8753 12.8894 12.0876 13.1195L12.1912 13.2377L12.1931 13.2406L12.323 13.4164C12.5704 13.7755 12.7475 14.1782 12.8464 14.6029L12.8894 14.8168L12.8914 14.8236H12.8904C12.9915 15.6796 12.9915 16.5448 12.8904 17.4008L12.8894 17.4135L12.8855 17.4252C12.8481 17.5543 12.7717 17.6487 12.6726 17.7055C12.5762 17.7606 12.4679 17.7744 12.3708 17.7631C12.2744 17.7517 12.1786 17.7149 12.1042 17.6547C12.0297 17.5942 11.9666 17.5009 11.9666 17.3832V17.3803L11.9714 16.9086C11.9695 16.4376 11.9483 15.9669 11.9089 15.4975L11.8826 15.2982C11.8021 14.8364 11.5965 14.4036 11.2869 14.0482V14.0492C11.1272 13.8669 10.9296 13.7211 10.7078 13.6234C10.4861 13.5259 10.2458 13.4776 10.0037 13.4828L9.9939 13.4838V13.4828C9.82356 13.4761 9.65406 13.503 9.49487 13.5609L9.33862 13.6293C9.13725 13.734 8.96575 13.8889 8.84253 14.0795L8.84351 14.0805C8.51259 14.5989 8.29976 15.1829 8.21851 15.7904L8.19116 16.0521C8.17558 16.2664 8.19552 16.4839 8.22046 16.7094C8.24492 16.9306 8.27515 17.1648 8.27515 17.392V17.4057L8.12476 17.392Z" fill="white" stroke="white" stroke-width="0.3"/>
</g>
<defs>
<clipPath id="clip0_82_219">
<rect width="20" height="20" fill="white"/>
</clipPath>
</defs>
</svg>
