<svg width="20" height="20" viewBox="0 0 20 20" fill="none" xmlns="http://www.w3.org/2000/svg">
<g clip-path="url(#clip0_82_207)">
<path fill-rule="evenodd" clip-rule="evenodd" d="M11.0833 4.29167C9.68332 4.03333 3.33333 3.39167 3.07499 4.68333C2.59166 7.01667 2.40833 7.51667 2.40833 7.81667C2.40833 8.54167 4.02499 8.65 4.74999 8.76667C5.47499 8.88333 6.36666 9.00833 7.18332 9.1C8.25826 9.20517 9.34325 9.12626 10.3917 8.86667C10.6333 8.86667 10.9583 8.86667 11.1417 8.58333C11.2729 8.23827 11.3159 7.86589 11.2667 7.5C11.55 5.19167 11.6 5 11.5167 4.71667C11.4931 4.61158 11.4397 4.51555 11.3628 4.44014C11.2859 4.36473 11.1888 4.31317 11.0833 4.29167ZM10.25 7.925L8.83332 8.15833C7.49425 8.20089 6.1539 8.13679 4.82499 7.96667C4.26081 7.97393 3.69882 7.89525 3.15833 7.73333C3.15833 7.575 3.08333 8.35 3.39999 6C3.39999 6 3.69999 4.85833 3.69999 4.79167C3.82499 5.1 7.86666 4.59167 9.69999 4.90833C10.0055 4.95833 10.3055 5.01667 10.6 5.08333V5.46667C10.1667 8.49167 10.2333 7.73333 10.225 7.925H10.25Z" fill="white" stroke="white" stroke-width="0.3"/>
<path fill-rule="evenodd" clip-rule="evenodd" d="M14.6166 5.83333C14.651 5.84999 14.6883 5.85953 14.7264 5.86139C14.7645 5.86325 14.8027 5.85739 14.8385 5.84416C14.8743 5.83093 14.907 5.8106 14.9348 5.7844C14.9625 5.75819 14.9847 5.72665 14.9999 5.69167C15.4833 4.94167 13.4916 4.76667 12.2999 4.96667C12.2239 4.96205 12.1491 4.98736 12.0915 5.03719C12.0338 5.08702 11.998 5.15742 11.9916 5.23333C11.9583 5.83333 14.0333 5.575 14.6166 5.83333Z" fill="white" stroke="white" stroke-width="0.3"/>
<path fill-rule="evenodd" clip-rule="evenodd" d="M12.0334 7.60833C12.8244 8.01177 13.7237 8.15191 14.6 8.00833C14.9584 8.125 15.4834 7.54167 14.7584 7.29167C14.5943 7.25164 14.4269 7.22654 14.2584 7.21667C13.4584 7.09167 11.6667 6.88333 12.0334 7.60833Z" fill="white" stroke="white" stroke-width="0.3"/>
<path fill-rule="evenodd" clip-rule="evenodd" d="M6.48338 10.6C2.38338 10.4917 2.59171 10.525 2.48337 10.7083C2.4637 10.7385 2.45127 10.7727 2.44705 10.8085C2.44282 10.8442 2.44692 10.8805 2.45903 10.9144C2.47113 10.9482 2.49091 10.9789 2.51682 11.0039C2.54273 11.0288 2.57406 11.0475 2.60838 11.0583C2.74171 11.1333 2.65837 11.1 6.45004 11.4917C9.08617 11.6625 11.7306 11.6625 14.3667 11.4917C14.4419 11.4917 14.5139 11.4618 14.5671 11.4087C14.6202 11.3555 14.65 11.2835 14.65 11.2083C14.65 11.1332 14.6202 11.0611 14.5671 11.008C14.5139 10.9549 14.4419 10.925 14.3667 10.925C12.3834 10.925 11.8667 10.7333 6.48338 10.6Z" fill="white" stroke="white" stroke-width="0.3"/>
<path fill-rule="evenodd" clip-rule="evenodd" d="M13.9 13.8417C9.36663 13.6167 10.8333 13.3833 6.69996 13.45C5.95829 13.45 5.21663 13.4917 4.47496 13.45C4.18329 13.45 2.66663 13.2333 2.55829 13.2583C2.50433 13.2755 2.45721 13.3093 2.42377 13.355C2.39034 13.4007 2.37231 13.4559 2.37231 13.5125C2.37231 13.5691 2.39034 13.6243 2.42377 13.67C2.45721 13.7157 2.50433 13.7495 2.55829 13.7667C2.64163 13.7667 2.42496 13.7667 4.43329 14.1333C6.57374 14.3492 8.72366 14.4577 10.875 14.4583H11.8166C15.2166 14.4667 14.625 13.8167 13.9 13.8417Z" fill="white" stroke="white" stroke-width="0.3"/>
<path fill-rule="evenodd" clip-rule="evenodd" d="M20 8.55833C19.8916 5.625 19.9583 6.475 19.8833 4.50833C19.8798 4.43646 19.8552 4.36721 19.8127 4.30921C19.7701 4.25121 19.7114 4.20702 19.6438 4.18214C19.5763 4.15726 19.503 4.1528 19.4329 4.16932C19.3629 4.18583 19.2993 4.22258 19.25 4.275C19.0417 4.59944 18.754 4.86537 18.4142 5.04764C18.0745 5.22992 17.6938 5.32251 17.3083 5.31667C17.5207 4.51186 17.6766 3.6932 17.775 2.86667C17.7787 2.68291 17.7133 2.50447 17.5917 2.36667C17.3333 2.11667 15.0916 2.19167 14.6916 2.2C12.15 2.275 9.93332 1.975 7.14165 2.03333C3.29165 2.11667 2.28332 1.425 2.58332 2.2C2.60764 2.24972 2.64268 2.29344 2.6859 2.32802C2.72912 2.3626 2.77947 2.38718 2.83332 2.4C4.25933 2.61369 5.69974 2.71678 7.14165 2.70833C10.8166 2.78333 10.7083 3.15 16.575 3.15H16.7166C16.7166 4.20833 15.8833 6.31667 15.8833 10.1917C15.8833 11.5583 15.9916 15.3917 16.5917 16.4917C16.6818 16.6486 16.794 16.7917 16.925 16.9167C14.1666 17.8167 3.66665 17.3333 2.10832 16.7417C1.84165 16.6417 1.46665 16.6083 1.35832 16.4417C0.383317 15 1.40832 8.28333 1.59165 6.6C1.71418 5.60844 1.90068 4.62583 2.14998 3.65833C2.31872 3.20052 2.43611 2.72539 2.49998 2.24167C2.48144 2.19257 2.44838 2.15029 2.40521 2.12045C2.36204 2.0906 2.3108 2.07462 2.25832 2.07462C2.20583 2.07462 2.1546 2.0906 2.11143 2.12045C2.06825 2.15029 2.0352 2.19257 2.01665 2.24167C2.09165 2.15833 1.27498 4.56667 0.974983 6.55833C0.599983 8.74167 -0.716684 15.0833 0.508316 16.9417C0.84165 17.45 1.34165 17.4667 1.71665 17.6167C2.56392 17.8833 3.4452 18.0265 4.33332 18.0417C6.06665 18.15 17.0833 18.55 18.2416 17.0333C20.0416 14.6833 20.075 11.4833 20 8.55833ZM17.75 16.6667C17.6065 16.6507 17.4696 16.5978 17.3528 16.5131C17.2359 16.4284 17.1431 16.3147 17.0833 16.1833C16.575 15.1833 16.5916 11.3333 16.6416 10.1917C16.7043 8.72711 16.8827 7.26979 17.175 5.83333C17.5198 5.88356 17.8713 5.86372 18.2083 5.775C18.5338 5.68396 18.8411 5.53736 19.1166 5.34167C18.8417 10.8333 19.6 13.8 17.75 16.6667Z" fill="white" stroke="white" stroke-width="0.3"/>
<path fill-rule="evenodd" clip-rule="evenodd" d="M17.8584 7.425C17.3834 7.08333 17.4 8.25833 17.2917 9.21667C17.1872 10.368 17.2039 11.5272 17.3417 12.675C17.3417 12.7501 17.3716 12.8222 17.4247 12.8753C17.4778 12.9285 17.5499 12.9583 17.625 12.9583C17.7002 12.9583 17.7723 12.9285 17.8254 12.8753C17.8785 12.8222 17.9084 12.7501 17.9084 12.675C18.1137 11.5342 18.2003 10.3753 18.1667 9.21667C17.9334 7.30833 18.0084 7.5 17.8584 7.425Z" fill="white" stroke="white" stroke-width="0.3"/>
</g>
<defs>
<clipPath id="clip0_82_207">
<rect width="20" height="20" fill="white"/>
</clipPath>
</defs>
</svg>
