<svg width="20" height="20" viewBox="0 0 20 20" fill="none" xmlns="http://www.w3.org/2000/svg">
<g clip-path="url(#clip0_82_228)">
<path d="M2.17798 5.01961C2.29712 4.95569 2.42607 4.96353 2.53052 5.00984C2.70352 5.08659 2.84925 5.29617 2.77856 5.52254C2.78748 5.54074 2.79795 5.55718 2.80298 5.5743C2.81903 5.62893 2.82318 5.68893 2.82251 5.7452C2.82114 5.85816 2.79862 5.99148 2.77271 6.11629C2.74659 6.24202 2.71425 6.37 2.6897 6.47176C2.67717 6.52369 2.66662 6.56854 2.65942 6.60457C2.65585 6.62246 2.65322 6.63704 2.65161 6.64852C2.65082 6.6542 2.65092 6.65889 2.65063 6.66219C2.65037 6.66532 2.64966 6.66707 2.64966 6.66707V6.67586L2.64868 6.68367C2.14862 10.9675 1.86749 12.8462 1.65845 14.043C1.46714 15.1383 1.34033 15.6519 1.16138 16.9122C1.2618 16.8286 1.3692 16.744 1.47583 16.6544C1.69131 16.4732 1.9147 16.2862 2.1272 16.129L2.12915 16.128L2.45923 15.9044C2.7671 15.7117 3.01371 15.6126 3.24536 15.6173C3.48236 15.6221 3.68133 15.7352 3.88794 15.8995L4.09985 16.0792L4.10083 16.0811L4.5686 16.5294C4.78692 16.7448 5.0487 17.0112 5.29907 17.2794C5.54913 17.5472 5.79035 17.8211 5.96411 18.0518C6.05062 18.1667 6.12399 18.2755 6.1731 18.3702C6.19758 18.4174 6.21903 18.4653 6.23169 18.5118C6.24195 18.5496 6.2457 18.5959 6.23853 18.6446L6.24146 18.6456C6.23419 18.7319 6.20131 18.8137 6.14868 18.8809L6.09009 18.9425C6.00294 19.0178 5.88966 19.0568 5.77466 19.0499L5.76685 19.0489C5.61449 19.032 5.49553 18.9283 5.38794 18.8136C5.27892 18.6973 5.14455 18.526 4.97876 18.3311C4.63986 17.9329 4.11643 17.3713 3.19458 16.6964L3.1897 16.6925C2.95547 16.8202 2.74189 16.9833 2.55884 17.1778L2.54907 17.1876C2.33947 17.3705 2.13761 17.565 1.9397 17.752C1.74363 17.9373 1.5503 18.1167 1.36255 18.2618C0.999367 18.5425 0.590708 18.7484 0.192627 18.5225L0.190674 18.5216C0.123197 18.4822 0.0635927 18.4311 0.0129395 18.3721L-0.0349121 18.3106C-0.0936348 18.2244 -0.13235 18.1257 -0.148193 18.0225L-0.147217 18.0216C-0.174998 17.8693 -0.17364 17.6422 -0.154053 17.3721C-0.133843 17.0937 -0.0943902 16.7546 -0.0407715 16.378C0.0664998 15.6247 0.229586 14.7102 0.402588 13.7999C0.750193 11.9708 1.13543 10.1705 1.20142 9.67977L1.20239 9.67293L1.50024 8.04012C1.74291 6.68007 1.8312 6.08899 1.86353 5.82039C1.88449 5.64611 1.88132 5.61316 1.88208 5.58602C1.88351 5.53523 1.89579 5.49441 1.92993 5.36922L1.97095 5.25399C2.01896 5.14753 2.0889 5.06745 2.17798 5.01961Z" fill="white" stroke="white" stroke-width="0.3"/>
<path d="M7.4082 0.366592C7.95239 0.351526 8.48891 0.513631 8.93652 0.830459L9.12598 0.957412C9.29572 1.08373 9.40912 1.20918 9.47363 1.33144C9.5629 1.50068 9.55868 1.66885 9.46973 1.79823C9.38612 1.91946 9.24403 1.98209 9.1084 1.98378C8.99435 1.98513 8.87512 1.943 8.78613 1.84901H8.78516C8.75102 1.84092 8.71831 1.82615 8.69238 1.81288C8.64131 1.78674 8.57341 1.74449 8.50879 1.70644C8.37032 1.6249 8.19611 1.5311 7.98828 1.48476C7.78317 1.43902 7.54221 1.43815 7.26855 1.54726C6.99296 1.65714 6.67437 1.88234 6.32324 2.30409L6.32129 2.30702C5.97788 2.6999 5.70429 3.14903 5.51465 3.63515L5.51562 3.63612C5.51529 3.63793 5.50994 3.65971 5.50098 3.7162C5.49255 3.76935 5.4828 3.83721 5.4707 3.91835C5.44679 4.07866 5.41459 4.28303 5.37012 4.48183C5.32623 4.67795 5.26787 4.8806 5.1875 5.03261C5.1474 5.10845 5.09611 5.18294 5.0293 5.23573C4.96134 5.28927 4.8757 5.3195 4.77832 5.30604V5.308C4.77437 5.30764 4.77051 5.30648 4.7666 5.30604H4.76562V5.30507C4.67205 5.29436 4.58983 5.26048 4.52246 5.20253C4.45364 5.14329 4.40695 5.06669 4.37598 4.98573C4.31546 4.82734 4.30437 4.6286 4.31348 4.433C4.33188 4.03893 4.43814 3.57985 4.49512 3.30312L4.49609 3.29628L4.56934 3.03358C4.74885 2.42853 5.00155 1.87601 5.37305 1.42812C5.80018 0.913139 6.37849 0.542881 7.16211 0.386123L7.17383 0.38417L7.4082 0.366592Z" fill="white" stroke="white" stroke-width="0.3"/>
<path d="M9.62781 2.20958C10.5517 0.586247 13.0149 0.398112 14.4218 2.12266L14.5546 2.29552L14.5575 2.29845L14.7518 2.60411C15.1587 3.2897 15.4159 4.05345 15.5135 4.8463C16.4103 4.81942 17.3061 4.91291 18.1766 5.12657L18.5663 5.23106L18.5751 5.23302L18.5839 5.23692C18.7015 5.28716 18.8064 5.36323 18.8905 5.45958L18.9491 5.53575C19.0011 5.61103 19.0398 5.69457 19.0653 5.78282H19.0663C19.2169 6.20424 19.368 7.15629 19.5067 8.33848C19.6464 9.52844 19.7756 10.9717 19.8788 12.3902C19.982 13.8088 20.0594 15.2046 20.0946 16.2994C20.1122 16.8466 20.1196 17.32 20.1141 17.6842C20.1114 17.8662 20.1051 18.0227 20.0956 18.1481C20.0864 18.2696 20.073 18.3737 20.0516 18.444L20.0507 18.443C20.0012 18.6365 19.8761 18.7921 19.7206 18.9147C19.5631 19.0386 19.3668 19.1365 19.163 19.2135C18.7551 19.3674 18.2894 19.448 17.9657 19.482L17.9618 19.483C17.3185 19.5338 16.5759 19.5098 15.8983 19.4859C15.2137 19.4618 14.603 19.4378 14.2001 19.482H14.1991C13.6723 19.5388 13.116 19.6315 12.5663 19.6324L12.5673 19.6334C11.566 19.6923 8.9779 19.5777 7.86316 19.4977L7.48425 19.4654C7.24799 19.4414 7.02706 19.4181 6.85828 19.316C6.71933 19.2319 6.62877 19.105 6.56921 18.9293L6.51941 18.7369L6.51648 18.7223V18.7086C6.51631 18.7083 6.51441 18.6806 6.50964 18.6139C6.50503 18.5492 6.49871 18.456 6.49011 18.3375C6.47292 18.1007 6.448 17.7631 6.41882 17.3531C6.36048 16.5332 6.28389 15.4223 6.20886 14.2428C6.05922 11.8901 5.91695 9.25215 5.95007 8.10802L5.92468 7.49473C5.91044 7.23102 5.89339 6.92377 5.88171 6.61973C5.87022 6.32044 5.86411 6.02623 5.87292 5.79259C5.87732 5.67624 5.88533 5.57064 5.89929 5.48497C5.90624 5.44235 5.9148 5.40132 5.92664 5.36485C5.9378 5.33057 5.95566 5.2886 5.98523 5.25352L6.03503 5.20762C6.05243 5.19524 6.07054 5.18553 6.08679 5.17735C6.12114 5.16008 6.16043 5.14591 6.20105 5.13341C6.28238 5.10839 6.38339 5.087 6.49597 5.06895C6.72213 5.03269 7.01143 5.00585 7.31726 4.98595C7.86774 4.95013 8.48318 4.93759 8.90613 4.93516C8.99921 3.99894 9.23929 3.08285 9.62097 2.22227L9.6239 2.21544L9.62781 2.20958ZM14.3368 18.2311C14.5861 18.2158 14.8892 18.2147 15.2167 18.2184C15.658 18.2234 16.1463 18.236 16.6327 18.235C17.1183 18.2339 17.5937 18.2197 18.0018 18.1695C18.3689 18.1244 18.6644 18.051 18.8641 17.9469C18.797 14.1619 18.5294 10.3831 18.0604 6.62657C18.0471 6.56625 18.019 6.50054 17.9872 6.42735C17.9721 6.39276 17.9559 6.35427 17.9432 6.31895C17.9427 6.31739 17.9419 6.3157 17.9413 6.31407C17.1894 6.11318 16.4164 6.00268 15.6385 5.98595C15.7218 6.62412 15.7266 7.27038 15.6493 7.90977L15.6425 7.96544L15.6005 8.00255C15.5239 8.07198 15.4245 8.11084 15.3212 8.11095C15.223 8.11095 15.1285 8.07523 15.0536 8.01231V8.01329C14.99 7.96731 14.9472 7.91035 14.9149 7.82481C14.8864 7.74905 14.8645 7.6457 14.8397 7.50352C14.8145 7.35888 14.7836 7.15992 14.7401 6.88731C14.7008 6.64081 14.6492 6.33181 14.5819 5.942C12.9497 6.06517 11.3108 6.06547 9.67859 5.942C9.5897 6.36457 9.52733 6.70101 9.48035 6.96837C9.42926 7.25911 9.39434 7.47616 9.36121 7.62852C9.34452 7.70523 9.32686 7.77256 9.30554 7.82872C9.2844 7.88437 9.2561 7.93923 9.21277 7.98302C9.11355 8.08308 8.98648 8.07853 8.88757 8.06505V8.06407C8.82225 8.05537 8.75943 8.03477 8.703 8.00157L8.64832 7.96446C8.58227 7.91243 8.5311 7.84372 8.4989 7.76622V7.7672C8.49799 7.76537 8.49783 7.76317 8.49695 7.76134C8.49588 7.75869 8.49406 7.75619 8.49304 7.75352V7.75255C8.4516 7.65999 8.45135 7.5549 8.48132 7.31212C8.512 7.06373 8.57999 6.63754 8.70789 5.87852C8.47226 5.86381 8.19232 5.86383 7.88367 5.86973C7.55089 5.8761 7.18469 5.88548 6.81628 5.88829V8.12462C6.81628 8.77865 6.84776 9.36361 6.95691 10.6969L7.56628 17.7623V17.7643L7.59265 18.0611C7.60461 18.1397 7.62065 18.1905 7.64148 18.2262C7.67574 18.2848 7.74659 18.3429 7.98718 18.3815C8.22777 18.42 8.59514 18.4321 9.16785 18.4381C9.73441 18.444 10.499 18.4431 11.5155 18.4576C12.3816 18.4508 13.2462 18.3823 14.1024 18.2516L14.1063 18.2506L14.3368 18.2311ZM12.4569 2.25255C12.181 2.1708 11.889 2.16381 11.6112 2.23302L11.494 2.2672C11.1819 2.37078 10.9086 2.56822 10.7118 2.83165L10.6991 2.84825L10.6815 2.86192L10.6766 2.86485C10.3452 3.53145 10.1127 4.24239 9.98425 4.9752C11.4844 5.05922 12.9884 5.03073 14.4843 4.89024C14.3636 4.35048 14.1406 3.76854 13.8212 3.28673C13.4685 2.75472 13.0126 2.36158 12.4716 2.25548L12.4637 2.2545L12.4569 2.25255Z" fill="white" stroke="white" stroke-width="0.3"/>
<path d="M5.39526 5.09909C5.54907 5.14822 5.67819 5.19997 5.77222 5.25729C5.85603 5.30846 5.96028 5.39301 5.96851 5.52194C5.97707 5.65814 5.87585 5.7508 5.79077 5.80612C5.69667 5.86727 5.56197 5.92261 5.39526 5.97604L5.37769 5.9819L5.35913 5.98288C4.63253 6.02584 3.9034 6.01504 3.17847 5.94967L3.1687 5.9487L3.15894 5.94674C3.09549 5.93263 3.02344 5.89579 2.96753 5.84518C2.91395 5.79668 2.84284 5.7032 2.8689 5.57956C2.89383 5.46145 2.99507 5.38258 3.11108 5.32858C3.23317 5.27183 3.41143 5.2234 3.66089 5.18503L3.66772 5.18405L3.67554 5.18307L5.34155 5.09225L5.3689 5.0903L5.39526 5.09909Z" fill="white" stroke="white" stroke-width="0.3"/>
</g>
<defs>
<clipPath id="clip0_82_228">
<rect width="20" height="20" fill="white"/>
</clipPath>
</defs>
</svg>
